<mxfile host="Electron" modified="2024-05-29T17:56:59.890Z" agent="Mozilla/5.0 (Macintosh; Intel Mac OS X 10_15_7) AppleWebKit/537.36 (KHTML, like Gecko) draw.io/24.4.8 Chrome/124.0.6367.207 Electron/30.0.6 Safari/537.36" etag="ERAo_2hpKjeRqUGdX1fQ" version="24.4.8" type="device">
  <diagram name="Page-1" id="sNsOxpfBC73pJCyJcsxO">
    <mxGraphModel dx="2690" dy="800" grid="1" gridSize="10" guides="1" tooltips="1" connect="1" arrows="1" fold="1" page="1" pageScale="1" pageWidth="1169" pageHeight="827" math="0" shadow="0">
      <root>
        <mxCell id="0" />
        <mxCell id="1" parent="0" />
        <mxCell id="3XHsffcMrnMJzHtE97wV-1" value="AWS Management Account" style="points=[[0,0],[0.25,0],[0.5,0],[0.75,0],[1,0],[1,0.25],[1,0.5],[1,0.75],[1,1],[0.75,1],[0.5,1],[0.25,1],[0,1],[0,0.75],[0,0.5],[0,0.25]];outlineConnect=0;gradientColor=none;html=1;whiteSpace=wrap;fontSize=12;fontStyle=0;container=1;pointerEvents=0;collapsible=0;recursiveResize=0;shape=mxgraph.aws4.group;grIcon=mxgraph.aws4.group_account;strokeColor=#CD2264;fillColor=none;verticalAlign=top;align=left;spacingLeft=30;fontColor=#CD2264;dashed=0;" parent="1" vertex="1">
          <mxGeometry x="120" y="280" width="960" height="200" as="geometry" />
        </mxCell>
        <mxCell id="3XHsffcMrnMJzHtE97wV-2" value="AWS Single&lt;br&gt;Sign-On&lt;br&gt;Permission&lt;br&gt;Sets" style="sketch=0;points=[[0,0,0],[0.25,0,0],[0.5,0,0],[0.75,0,0],[1,0,0],[0,1,0],[0.25,1,0],[0.5,1,0],[0.75,1,0],[1,1,0],[0,0.25,0],[0,0.5,0],[0,0.75,0],[1,0.25,0],[1,0.5,0],[1,0.75,0]];outlineConnect=0;fontColor=#232F3E;fillColor=#DD344C;strokeColor=#ffffff;dashed=0;verticalLabelPosition=bottom;verticalAlign=top;align=center;html=1;fontSize=12;fontStyle=0;aspect=fixed;shape=mxgraph.aws4.resourceIcon;resIcon=mxgraph.aws4.single_sign_on;" parent="3XHsffcMrnMJzHtE97wV-1" vertex="1">
          <mxGeometry x="160" y="42" width="78" height="78" as="geometry" />
        </mxCell>
        <mxCell id="3XHsffcMrnMJzHtE97wV-3" value="SystemAdmin" style="sketch=0;outlineConnect=0;fontColor=#232F3E;gradientColor=none;fillColor=#DD344C;strokeColor=none;dashed=0;verticalLabelPosition=bottom;verticalAlign=top;align=center;html=1;fontSize=12;fontStyle=0;aspect=fixed;pointerEvents=1;shape=mxgraph.aws4.organizations_account;" parent="3XHsffcMrnMJzHtE97wV-1" vertex="1">
          <mxGeometry x="80" y="42" width="37.95" height="40" as="geometry" />
        </mxCell>
        <mxCell id="3XHsffcMrnMJzHtE97wV-7" value="MLOps&lt;br&gt;Engineer" style="sketch=0;outlineConnect=0;fontColor=#232F3E;gradientColor=none;fillColor=#DD344C;strokeColor=none;dashed=0;verticalLabelPosition=bottom;verticalAlign=top;align=center;html=1;fontSize=12;fontStyle=0;aspect=fixed;pointerEvents=1;shape=mxgraph.aws4.organizations_account;" parent="3XHsffcMrnMJzHtE97wV-1" vertex="1">
          <mxGeometry x="80" y="120" width="37.95" height="40" as="geometry" />
        </mxCell>
        <mxCell id="3XHsffcMrnMJzHtE97wV-69" value="Service&lt;br&gt;Control&lt;br&gt;Policies" style="sketch=0;outlineConnect=0;fontColor=#232F3E;gradientColor=none;fillColor=#DD344C;strokeColor=none;dashed=0;verticalLabelPosition=bottom;verticalAlign=top;align=center;html=1;fontSize=12;fontStyle=0;aspect=fixed;pointerEvents=1;shape=mxgraph.aws4.encrypted_data;" parent="3XHsffcMrnMJzHtE97wV-1" vertex="1">
          <mxGeometry x="317" y="40" width="63.59" height="80" as="geometry" />
        </mxCell>
        <mxCell id="yce7iASfih_bdmyY1fIq-1" value="Control Tower&lt;br&gt;Proactive&lt;br&gt;Controls" style="sketch=0;outlineConnect=0;fontColor=#232F3E;gradientColor=none;fillColor=#DD344C;strokeColor=none;dashed=0;verticalLabelPosition=bottom;verticalAlign=top;align=center;html=1;fontSize=12;fontStyle=0;aspect=fixed;pointerEvents=1;shape=mxgraph.aws4.encrypted_data;" parent="3XHsffcMrnMJzHtE97wV-1" vertex="1">
          <mxGeometry x="449" y="40" width="63.59" height="80" as="geometry" />
        </mxCell>
        <mxCell id="yce7iASfih_bdmyY1fIq-4" value="&lt;ul&gt;&lt;li&gt;&lt;span style=&quot;background-color: initial;&quot;&gt;EC2 launch template must have IMDSv2 configured&lt;/span&gt;&lt;br&gt;&lt;/li&gt;&lt;li&gt;EC2 launch template must not auto-assign public IPs&lt;/li&gt;&lt;li&gt;IAM policy must not have * in Action and Resource elements&lt;/li&gt;&lt;li&gt;S3 bucket must have block public access configured&lt;/li&gt;&lt;li&gt;S3 bucket must have server-side KMS key encryption&lt;/li&gt;&lt;li&gt;...&lt;/li&gt;&lt;/ul&gt;" style="rounded=1;whiteSpace=wrap;html=1;align=left;verticalAlign=top;dashed=1;" parent="3XHsffcMrnMJzHtE97wV-1" vertex="1">
          <mxGeometry x="520" y="30" width="340" height="140" as="geometry" />
        </mxCell>
        <mxCell id="3XHsffcMrnMJzHtE97wV-4" value="Data Science&lt;div&gt;&lt;br&gt;&lt;/div&gt;" style="points=[[0,0],[0.25,0],[0.5,0],[0.75,0],[1,0],[1,0.25],[1,0.5],[1,0.75],[1,1],[0.75,1],[0.5,1],[0.25,1],[0,1],[0,0.75],[0,0.5],[0,0.25]];outlineConnect=0;gradientColor=none;html=1;whiteSpace=wrap;fontSize=12;fontStyle=0;container=1;pointerEvents=0;collapsible=0;recursiveResize=0;shape=mxgraph.aws4.group;grIcon=mxgraph.aws4.group_account;strokeColor=#CD2264;fillColor=none;verticalAlign=top;align=left;spacingLeft=30;fontColor=#CD2264;dashed=0;" parent="1" vertex="1">
          <mxGeometry x="100" y="500" width="1000" height="780" as="geometry" />
        </mxCell>
        <mxCell id="3XHsffcMrnMJzHtE97wV-8" value="DevOps Bootstrap" style="shape=image;verticalLabelPosition=bottom;labelBackgroundColor=default;verticalAlign=top;aspect=fixed;imageAspect=0;image=https://d2908q01vomqb2.cloudfront.net/7719a1c782a1ba91c031a682a0a2f8658209adbf/2021/01/15/cdk-logo6-1260x476.png;" parent="3XHsffcMrnMJzHtE97wV-4" vertex="1">
          <mxGeometry x="320" y="80" width="105.96" height="40" as="geometry" />
        </mxCell>
        <mxCell id="3XHsffcMrnMJzHtE97wV-10" value="MLOps Bootstrap&#xa;(can also support&#xa;Cloudformation)" style="shape=image;verticalLabelPosition=bottom;labelBackgroundColor=default;verticalAlign=top;aspect=fixed;imageAspect=0;image=https://d2908q01vomqb2.cloudfront.net/7719a1c782a1ba91c031a682a0a2f8658209adbf/2021/01/15/cdk-logo6-1260x476.png;" parent="3XHsffcMrnMJzHtE97wV-4" vertex="1">
          <mxGeometry x="320" y="360" width="105.96" height="40" as="geometry" />
        </mxCell>
        <mxCell id="3XHsffcMrnMJzHtE97wV-13" value="MLOps role" style="sketch=0;outlineConnect=0;fontColor=#232F3E;gradientColor=none;fillColor=#DD344C;strokeColor=none;dashed=0;verticalLabelPosition=bottom;verticalAlign=top;align=center;html=1;fontSize=12;fontStyle=0;aspect=fixed;pointerEvents=1;shape=mxgraph.aws4.role;" parent="3XHsffcMrnMJzHtE97wV-4" vertex="1">
          <mxGeometry x="40" y="360" width="70.91" height="40" as="geometry" />
        </mxCell>
        <mxCell id="3XHsffcMrnMJzHtE97wV-14" value="SystemAdmin" style="sketch=0;outlineConnect=0;fontColor=#232F3E;gradientColor=none;fillColor=#DD344C;strokeColor=none;dashed=0;verticalLabelPosition=bottom;verticalAlign=top;align=center;html=1;fontSize=12;fontStyle=0;aspect=fixed;pointerEvents=1;shape=mxgraph.aws4.role;" parent="3XHsffcMrnMJzHtE97wV-4" vertex="1">
          <mxGeometry x="40" y="80" width="70.91" height="40" as="geometry" />
        </mxCell>
        <mxCell id="3XHsffcMrnMJzHtE97wV-12" value="" style="endArrow=classic;html=1;rounded=0;entryX=0;entryY=0.5;entryDx=0;entryDy=0;" parent="3XHsffcMrnMJzHtE97wV-4" source="3XHsffcMrnMJzHtE97wV-14" target="3XHsffcMrnMJzHtE97wV-8" edge="1">
          <mxGeometry width="50" height="50" relative="1" as="geometry">
            <mxPoint x="-180" y="-130" as="sourcePoint" />
            <mxPoint x="160" y="100" as="targetPoint" />
          </mxGeometry>
        </mxCell>
        <mxCell id="3XHsffcMrnMJzHtE97wV-21" value="AssumeRole&lt;br&gt;cdk-devops-&lt;br&gt;deploy" style="edgeLabel;html=1;align=center;verticalAlign=middle;resizable=0;points=[];fontSize=12;" parent="3XHsffcMrnMJzHtE97wV-12" vertex="1" connectable="0">
          <mxGeometry x="-0.2869" y="3" relative="1" as="geometry">
            <mxPoint as="offset" />
          </mxGeometry>
        </mxCell>
        <mxCell id="3XHsffcMrnMJzHtE97wV-16" value="(MLOps) Standard&lt;br&gt;Development&lt;br&gt;Policy" style="sketch=0;outlineConnect=0;fillColor=#0050ef;strokeColor=#001DBC;dashed=0;verticalLabelPosition=bottom;verticalAlign=top;align=center;html=1;fontSize=12;fontStyle=0;aspect=fixed;pointerEvents=1;shape=mxgraph.aws4.permissions;fontColor=#000000;" parent="3XHsffcMrnMJzHtE97wV-4" vertex="1">
          <mxGeometry x="160" y="340" width="63.59" height="80" as="geometry" />
        </mxCell>
        <mxCell id="3XHsffcMrnMJzHtE97wV-18" value="" style="endArrow=classic;html=1;rounded=0;" parent="3XHsffcMrnMJzHtE97wV-4" source="3XHsffcMrnMJzHtE97wV-13" target="3XHsffcMrnMJzHtE97wV-16" edge="1">
          <mxGeometry width="50" height="50" relative="1" as="geometry">
            <mxPoint x="-100" y="530" as="sourcePoint" />
            <mxPoint x="-50" y="480" as="targetPoint" />
          </mxGeometry>
        </mxCell>
        <mxCell id="3XHsffcMrnMJzHtE97wV-19" value="" style="endArrow=classic;html=1;rounded=0;entryX=0;entryY=0.5;entryDx=0;entryDy=0;" parent="3XHsffcMrnMJzHtE97wV-4" source="3XHsffcMrnMJzHtE97wV-16" target="3XHsffcMrnMJzHtE97wV-10" edge="1">
          <mxGeometry width="50" height="50" relative="1" as="geometry">
            <mxPoint x="300" y="520" as="sourcePoint" />
            <mxPoint x="350" y="470" as="targetPoint" />
          </mxGeometry>
        </mxCell>
        <mxCell id="3XHsffcMrnMJzHtE97wV-20" value="AssumeRole&lt;br&gt;cdk-mlops-&lt;br&gt;deploy" style="edgeLabel;html=1;align=center;verticalAlign=middle;resizable=0;points=[];fontSize=12;" parent="3XHsffcMrnMJzHtE97wV-19" vertex="1" connectable="0">
          <mxGeometry x="-0.4936" y="1" relative="1" as="geometry">
            <mxPoint x="22" y="1" as="offset" />
          </mxGeometry>
        </mxCell>
        <mxCell id="3XHsffcMrnMJzHtE97wV-22" value="AWS Management&lt;br&gt;Console" style="sketch=0;points=[[0,0,0],[0.25,0,0],[0.5,0,0],[0.75,0,0],[1,0,0],[0,1,0],[0.25,1,0],[0.5,1,0],[0.75,1,0],[1,1,0],[0,0.25,0],[0,0.5,0],[0,0.75,0],[1,0.25,0],[1,0.5,0],[1,0.75,0]];points=[[0,0,0],[0.25,0,0],[0.5,0,0],[0.75,0,0],[1,0,0],[0,1,0],[0.25,1,0],[0.5,1,0],[0.75,1,0],[1,1,0],[0,0.25,0],[0,0.5,0],[0,0.75,0],[1,0.25,0],[1,0.5,0],[1,0.75,0]];outlineConnect=0;fontColor=#232F3E;fillColor=#E7157B;strokeColor=#ffffff;dashed=0;verticalLabelPosition=bottom;verticalAlign=top;align=center;html=1;fontSize=12;fontStyle=0;aspect=fixed;shape=mxgraph.aws4.resourceIcon;resIcon=mxgraph.aws4.management_console;" parent="3XHsffcMrnMJzHtE97wV-4" vertex="1">
          <mxGeometry x="320" y="200" width="78" height="78" as="geometry" />
        </mxCell>
        <mxCell id="3XHsffcMrnMJzHtE97wV-23" value="" style="endArrow=classic;html=1;rounded=1;entryX=0;entryY=0.25;entryDx=0;entryDy=0;entryPerimeter=0;curved=0;" parent="3XHsffcMrnMJzHtE97wV-4" source="3XHsffcMrnMJzHtE97wV-14" target="3XHsffcMrnMJzHtE97wV-22" edge="1">
          <mxGeometry width="50" height="50" relative="1" as="geometry">
            <mxPoint x="-190" y="410" as="sourcePoint" />
            <mxPoint x="-140" y="360" as="targetPoint" />
            <Array as="points">
              <mxPoint x="75" y="220" />
            </Array>
          </mxGeometry>
        </mxCell>
        <mxCell id="3XHsffcMrnMJzHtE97wV-24" value="" style="endArrow=classic;html=1;rounded=1;entryX=0;entryY=0.75;entryDx=0;entryDy=0;entryPerimeter=0;curved=0;" parent="3XHsffcMrnMJzHtE97wV-4" source="3XHsffcMrnMJzHtE97wV-16" target="3XHsffcMrnMJzHtE97wV-22" edge="1">
          <mxGeometry width="50" height="50" relative="1" as="geometry">
            <mxPoint x="170" y="640" as="sourcePoint" />
            <mxPoint x="220" y="590" as="targetPoint" />
            <Array as="points">
              <mxPoint x="190" y="259" />
            </Array>
          </mxGeometry>
        </mxCell>
        <mxCell id="3XHsffcMrnMJzHtE97wV-29" value="ViewOnlyAccess &amp;amp;&lt;br&gt;additional read&lt;br&gt;permissions" style="edgeLabel;html=1;align=center;verticalAlign=middle;resizable=0;points=[];" parent="3XHsffcMrnMJzHtE97wV-24" vertex="1" connectable="0">
          <mxGeometry x="0.0062" relative="1" as="geometry">
            <mxPoint x="35" y="1" as="offset" />
          </mxGeometry>
        </mxCell>
        <mxCell id="3XHsffcMrnMJzHtE97wV-27" value="(MLOps) App&lt;br&gt;Permissions Boundary" style="sketch=0;outlineConnect=0;fillColor=#d80073;strokeColor=#A50040;dashed=0;verticalLabelPosition=bottom;verticalAlign=top;align=center;html=1;fontSize=12;fontStyle=0;aspect=fixed;pointerEvents=1;shape=mxgraph.aws4.permissions;fontColor=#000000;" parent="3XHsffcMrnMJzHtE97wV-4" vertex="1">
          <mxGeometry x="460.00000000000006" y="460" width="63.59" height="80" as="geometry" />
        </mxCell>
        <mxCell id="3XHsffcMrnMJzHtE97wV-32" value="Cloudformation stack" style="rounded=0;whiteSpace=wrap;html=1;labelPosition=center;verticalLabelPosition=top;align=center;verticalAlign=bottom;" parent="3XHsffcMrnMJzHtE97wV-4" vertex="1">
          <mxGeometry x="680" y="240" width="240" height="500" as="geometry" />
        </mxCell>
        <mxCell id="3XHsffcMrnMJzHtE97wV-33" value="" style="sketch=0;points=[[0,0,0],[0.25,0,0],[0.5,0,0],[0.75,0,0],[1,0,0],[0,1,0],[0.25,1,0],[0.5,1,0],[0.75,1,0],[1,1,0],[0,0.25,0],[0,0.5,0],[0,0.75,0],[1,0.25,0],[1,0.5,0],[1,0.75,0]];points=[[0,0,0],[0.25,0,0],[0.5,0,0],[0.75,0,0],[1,0,0],[0,1,0],[0.25,1,0],[0.5,1,0],[0.75,1,0],[1,1,0],[0,0.25,0],[0,0.5,0],[0,0.75,0],[1,0.25,0],[1,0.5,0],[1,0.75,0]];outlineConnect=0;fontColor=#232F3E;fillColor=#E7157B;strokeColor=#ffffff;dashed=0;verticalLabelPosition=bottom;verticalAlign=top;align=center;html=1;fontSize=12;fontStyle=0;aspect=fixed;shape=mxgraph.aws4.resourceIcon;resIcon=mxgraph.aws4.cloudformation;" parent="3XHsffcMrnMJzHtE97wV-4" vertex="1">
          <mxGeometry x="678" y="210" width="30" height="30" as="geometry" />
        </mxCell>
        <mxCell id="3XHsffcMrnMJzHtE97wV-34" value="cdk-mlops-cfn-exec" style="sketch=0;outlineConnect=0;fontColor=#232F3E;gradientColor=none;fillColor=#DD344C;strokeColor=none;dashed=0;verticalLabelPosition=bottom;verticalAlign=top;align=center;html=1;fontSize=12;fontStyle=0;aspect=fixed;pointerEvents=1;shape=mxgraph.aws4.role;" parent="3XHsffcMrnMJzHtE97wV-4" vertex="1">
          <mxGeometry x="500" y="360" width="70.91" height="40" as="geometry" />
        </mxCell>
        <mxCell id="3XHsffcMrnMJzHtE97wV-35" value="Lambda&lt;br&gt;role&lt;br&gt;Path: /approle/" style="sketch=0;outlineConnect=0;fontColor=#232F3E;gradientColor=none;fillColor=#DD344C;strokeColor=none;dashed=0;verticalLabelPosition=bottom;verticalAlign=top;align=center;html=1;fontSize=12;fontStyle=0;aspect=fixed;pointerEvents=1;shape=mxgraph.aws4.role;" parent="3XHsffcMrnMJzHtE97wV-4" vertex="1">
          <mxGeometry x="718" y="274" width="70.91" height="40" as="geometry" />
        </mxCell>
        <mxCell id="3XHsffcMrnMJzHtE97wV-36" value="Container&lt;br&gt;role&lt;br&gt;Path: /approle/" style="sketch=0;outlineConnect=0;fontColor=#232F3E;gradientColor=none;fillColor=#DD344C;strokeColor=none;dashed=0;verticalLabelPosition=bottom;verticalAlign=top;align=center;html=1;fontSize=12;fontStyle=0;aspect=fixed;pointerEvents=1;shape=mxgraph.aws4.role;" parent="3XHsffcMrnMJzHtE97wV-4" vertex="1">
          <mxGeometry x="718" y="404" width="70.91" height="40" as="geometry" />
        </mxCell>
        <mxCell id="3XHsffcMrnMJzHtE97wV-37" value="Function" style="sketch=0;outlineConnect=0;fontColor=#232F3E;gradientColor=none;fillColor=#ED7100;strokeColor=none;dashed=0;verticalLabelPosition=bottom;verticalAlign=top;align=center;html=1;fontSize=12;fontStyle=0;aspect=fixed;pointerEvents=1;shape=mxgraph.aws4.lambda_function;" parent="3XHsffcMrnMJzHtE97wV-4" vertex="1">
          <mxGeometry x="840" y="270" width="48" height="48" as="geometry" />
        </mxCell>
        <mxCell id="3XHsffcMrnMJzHtE97wV-38" value="Container&lt;br&gt;Service" style="sketch=0;outlineConnect=0;fontColor=#232F3E;gradientColor=none;fillColor=#ED7100;strokeColor=none;dashed=0;verticalLabelPosition=bottom;verticalAlign=top;align=center;html=1;fontSize=12;fontStyle=0;aspect=fixed;pointerEvents=1;shape=mxgraph.aws4.ecs_service;" parent="3XHsffcMrnMJzHtE97wV-4" vertex="1">
          <mxGeometry x="840" y="400" width="39" height="48" as="geometry" />
        </mxCell>
        <mxCell id="3XHsffcMrnMJzHtE97wV-39" value="" style="endArrow=classic;html=1;rounded=0;" parent="3XHsffcMrnMJzHtE97wV-4" source="3XHsffcMrnMJzHtE97wV-38" target="3XHsffcMrnMJzHtE97wV-36" edge="1">
          <mxGeometry width="50" height="50" relative="1" as="geometry">
            <mxPoint x="820" y="630" as="sourcePoint" />
            <mxPoint x="870" y="580" as="targetPoint" />
          </mxGeometry>
        </mxCell>
        <mxCell id="3XHsffcMrnMJzHtE97wV-40" value="" style="endArrow=classic;html=1;rounded=0;" parent="3XHsffcMrnMJzHtE97wV-4" source="3XHsffcMrnMJzHtE97wV-37" target="3XHsffcMrnMJzHtE97wV-35" edge="1">
          <mxGeometry width="50" height="50" relative="1" as="geometry">
            <mxPoint x="790" y="630" as="sourcePoint" />
            <mxPoint x="840" y="580" as="targetPoint" />
          </mxGeometry>
        </mxCell>
        <mxCell id="3XHsffcMrnMJzHtE97wV-42" value="" style="endArrow=classic;html=1;rounded=0;exitX=1;exitY=0.5;exitDx=0;exitDy=0;" parent="3XHsffcMrnMJzHtE97wV-4" source="3XHsffcMrnMJzHtE97wV-10" target="3XHsffcMrnMJzHtE97wV-34" edge="1">
          <mxGeometry width="50" height="50" relative="1" as="geometry">
            <mxPoint x="500" y="560" as="sourcePoint" />
            <mxPoint x="550" y="510" as="targetPoint" />
          </mxGeometry>
        </mxCell>
        <mxCell id="3XHsffcMrnMJzHtE97wV-45" value="PassRole to&lt;br style=&quot;font-size: 12px;&quot;&gt;Cloudformation" style="edgeLabel;html=1;align=center;verticalAlign=middle;resizable=0;points=[];fontSize=12;" parent="3XHsffcMrnMJzHtE97wV-42" vertex="1" connectable="0">
          <mxGeometry x="-0.5237" y="-1" relative="1" as="geometry">
            <mxPoint x="16" y="-21" as="offset" />
          </mxGeometry>
        </mxCell>
        <mxCell id="3XHsffcMrnMJzHtE97wV-43" value="" style="endArrow=classic;html=1;rounded=0;entryX=-0.011;entryY=0.281;entryDx=0;entryDy=0;entryPerimeter=0;" parent="3XHsffcMrnMJzHtE97wV-4" source="3XHsffcMrnMJzHtE97wV-34" target="3XHsffcMrnMJzHtE97wV-32" edge="1">
          <mxGeometry width="50" height="50" relative="1" as="geometry">
            <mxPoint x="580" y="630" as="sourcePoint" />
            <mxPoint x="630" y="580" as="targetPoint" />
          </mxGeometry>
        </mxCell>
        <mxCell id="3XHsffcMrnMJzHtE97wV-44" value="Cloudformation&lt;br style=&quot;font-size: 12px;&quot;&gt;deploy" style="edgeLabel;html=1;align=center;verticalAlign=middle;resizable=0;points=[];fontSize=12;" parent="3XHsffcMrnMJzHtE97wV-43" vertex="1" connectable="0">
          <mxGeometry x="-0.3808" y="1" relative="1" as="geometry">
            <mxPoint x="16" y="-19" as="offset" />
          </mxGeometry>
        </mxCell>
        <mxCell id="3XHsffcMrnMJzHtE97wV-46" value="" style="endArrow=classic;html=1;rounded=1;curved=0;dashed=1;" parent="3XHsffcMrnMJzHtE97wV-4" source="3XHsffcMrnMJzHtE97wV-36" target="3XHsffcMrnMJzHtE97wV-27" edge="1">
          <mxGeometry width="50" height="50" relative="1" as="geometry">
            <mxPoint x="550" y="640" as="sourcePoint" />
            <mxPoint x="600" y="590" as="targetPoint" />
            <Array as="points">
              <mxPoint x="660" y="424" />
              <mxPoint x="660" y="500" />
            </Array>
          </mxGeometry>
        </mxCell>
        <mxCell id="3XHsffcMrnMJzHtE97wV-47" value="" style="endArrow=classic;html=1;rounded=1;curved=0;dashed=1;" parent="3XHsffcMrnMJzHtE97wV-4" source="3XHsffcMrnMJzHtE97wV-35" target="3XHsffcMrnMJzHtE97wV-27" edge="1">
          <mxGeometry width="50" height="50" relative="1" as="geometry">
            <mxPoint x="680" y="630" as="sourcePoint" />
            <mxPoint x="390" y="520" as="targetPoint" />
            <Array as="points">
              <mxPoint x="660" y="294" />
              <mxPoint x="660" y="500" />
            </Array>
          </mxGeometry>
        </mxCell>
        <mxCell id="3XHsffcMrnMJzHtE97wV-48" value="Attach&lt;br&gt;on deployment&lt;br&gt;Condition" style="edgeLabel;html=1;align=center;verticalAlign=middle;resizable=0;points=[];" parent="3XHsffcMrnMJzHtE97wV-47" vertex="1" connectable="0">
          <mxGeometry x="0.5926" y="1" relative="1" as="geometry">
            <mxPoint x="-5" as="offset" />
          </mxGeometry>
        </mxCell>
        <mxCell id="3XHsffcMrnMJzHtE97wV-51" value="Standard&lt;br&gt;Deployment&lt;br&gt;Policy" style="sketch=0;outlineConnect=0;fillColor=#008a00;strokeColor=#005700;dashed=0;verticalLabelPosition=bottom;verticalAlign=top;align=center;html=1;fontSize=12;fontStyle=0;aspect=fixed;pointerEvents=1;shape=mxgraph.aws4.permissions;fontColor=#000000;" parent="3XHsffcMrnMJzHtE97wV-4" vertex="1">
          <mxGeometry x="503.65999999999997" y="160" width="63.59" height="80" as="geometry" />
        </mxCell>
        <mxCell id="3XHsffcMrnMJzHtE97wV-52" value="" style="endArrow=classic;html=1;rounded=0;" parent="3XHsffcMrnMJzHtE97wV-4" source="3XHsffcMrnMJzHtE97wV-51" target="3XHsffcMrnMJzHtE97wV-34" edge="1">
          <mxGeometry width="50" height="50" relative="1" as="geometry">
            <mxPoint x="520" y="670" as="sourcePoint" />
            <mxPoint x="570" y="620" as="targetPoint" />
          </mxGeometry>
        </mxCell>
        <mxCell id="3XHsffcMrnMJzHtE97wV-57" value="AI/ML Landing Zone" style="rounded=0;whiteSpace=wrap;html=1;labelPosition=center;verticalLabelPosition=top;align=center;verticalAlign=bottom;" parent="3XHsffcMrnMJzHtE97wV-4" vertex="1">
          <mxGeometry x="678" y="40" width="240" height="120" as="geometry" />
        </mxCell>
        <mxCell id="3XHsffcMrnMJzHtE97wV-58" value="" style="sketch=0;points=[[0,0,0],[0.25,0,0],[0.5,0,0],[0.75,0,0],[1,0,0],[0,1,0],[0.25,1,0],[0.5,1,0],[0.75,1,0],[1,1,0],[0,0.25,0],[0,0.5,0],[0,0.75,0],[1,0.25,0],[1,0.5,0],[1,0.75,0]];points=[[0,0,0],[0.25,0,0],[0.5,0,0],[0.75,0,0],[1,0,0],[0,1,0],[0.25,1,0],[0.5,1,0],[0.75,1,0],[1,1,0],[0,0.25,0],[0,0.5,0],[0,0.75,0],[1,0.25,0],[1,0.5,0],[1,0.75,0]];outlineConnect=0;fontColor=#232F3E;fillColor=#E7157B;strokeColor=#ffffff;dashed=0;verticalLabelPosition=bottom;verticalAlign=top;align=center;html=1;fontSize=12;fontStyle=0;aspect=fixed;shape=mxgraph.aws4.resourceIcon;resIcon=mxgraph.aws4.cloudformation;" parent="3XHsffcMrnMJzHtE97wV-4" vertex="1">
          <mxGeometry x="678" y="10" width="30" height="30" as="geometry" />
        </mxCell>
        <mxCell id="3XHsffcMrnMJzHtE97wV-63" value="Sagemaker&lt;br&gt;Domain" style="sketch=0;points=[[0,0,0],[0.25,0,0],[0.5,0,0],[0.75,0,0],[1,0,0],[0,1,0],[0.25,1,0],[0.5,1,0],[0.75,1,0],[1,1,0],[0,0.25,0],[0,0.5,0],[0,0.75,0],[1,0.25,0],[1,0.5,0],[1,0.75,0]];outlineConnect=0;fontColor=#232F3E;fillColor=#01A88D;strokeColor=#ffffff;dashed=0;verticalLabelPosition=bottom;verticalAlign=top;align=center;html=1;fontSize=12;fontStyle=0;aspect=fixed;shape=mxgraph.aws4.resourceIcon;resIcon=mxgraph.aws4.sagemaker;" parent="3XHsffcMrnMJzHtE97wV-4" vertex="1">
          <mxGeometry x="718" y="70" width="40" height="40" as="geometry" />
        </mxCell>
        <mxCell id="3XHsffcMrnMJzHtE97wV-64" value="Code&lt;br&gt;Pipeline" style="sketch=0;points=[[0,0,0],[0.25,0,0],[0.5,0,0],[0.75,0,0],[1,0,0],[0,1,0],[0.25,1,0],[0.5,1,0],[0.75,1,0],[1,1,0],[0,0.25,0],[0,0.5,0],[0,0.75,0],[1,0.25,0],[1,0.5,0],[1,0.75,0]];outlineConnect=0;fontColor=#232F3E;fillColor=#C925D1;strokeColor=#ffffff;dashed=0;verticalLabelPosition=bottom;verticalAlign=top;align=center;html=1;fontSize=12;fontStyle=0;aspect=fixed;shape=mxgraph.aws4.resourceIcon;resIcon=mxgraph.aws4.codepipeline;" parent="3XHsffcMrnMJzHtE97wV-4" vertex="1">
          <mxGeometry x="780" y="70" width="40" height="40" as="geometry" />
        </mxCell>
        <mxCell id="3XHsffcMrnMJzHtE97wV-65" value="Studio&lt;br&gt;Notebooks" style="sketch=0;points=[[0,0,0],[0.25,0,0],[0.5,0,0],[0.75,0,0],[1,0,0],[0,1,0],[0.25,1,0],[0.5,1,0],[0.75,1,0],[1,1,0],[0,0.25,0],[0,0.5,0],[0,0.75,0],[1,0.25,0],[1,0.5,0],[1,0.75,0]];outlineConnect=0;fontColor=#232F3E;fillColor=#01A88D;strokeColor=#ffffff;dashed=0;verticalLabelPosition=bottom;verticalAlign=top;align=center;html=1;fontSize=12;fontStyle=0;aspect=fixed;shape=mxgraph.aws4.resourceIcon;resIcon=mxgraph.aws4.sagemaker_studio_lab;" parent="3XHsffcMrnMJzHtE97wV-4" vertex="1">
          <mxGeometry x="848" y="70" width="40" height="40" as="geometry" />
        </mxCell>
        <mxCell id="wpb5gG0qJwwTbhObTYYj-2" value="cdk-devops-cfn-exec" style="sketch=0;outlineConnect=0;fontColor=#232F3E;gradientColor=none;fillColor=#DD344C;strokeColor=none;dashed=0;verticalLabelPosition=bottom;verticalAlign=top;align=center;html=1;fontSize=12;fontStyle=0;aspect=fixed;pointerEvents=1;shape=mxgraph.aws4.role;" parent="3XHsffcMrnMJzHtE97wV-4" vertex="1">
          <mxGeometry x="498" y="80" width="70.91" height="40" as="geometry" />
        </mxCell>
        <mxCell id="wpb5gG0qJwwTbhObTYYj-3" value="" style="endArrow=classic;html=1;rounded=0;exitX=1;exitY=0.5;exitDx=0;exitDy=0;" parent="3XHsffcMrnMJzHtE97wV-4" target="wpb5gG0qJwwTbhObTYYj-2" edge="1">
          <mxGeometry width="50" height="50" relative="1" as="geometry">
            <mxPoint x="424" y="100" as="sourcePoint" />
            <mxPoint x="548" y="230" as="targetPoint" />
          </mxGeometry>
        </mxCell>
        <mxCell id="wpb5gG0qJwwTbhObTYYj-4" value="PassRole to&lt;br style=&quot;font-size: 12px;&quot;&gt;Cloudformation" style="edgeLabel;html=1;align=center;verticalAlign=middle;resizable=0;points=[];fontSize=12;" parent="wpb5gG0qJwwTbhObTYYj-3" vertex="1" connectable="0">
          <mxGeometry x="-0.5237" y="-1" relative="1" as="geometry">
            <mxPoint x="16" y="-21" as="offset" />
          </mxGeometry>
        </mxCell>
        <mxCell id="wpb5gG0qJwwTbhObTYYj-5" value="" style="endArrow=classic;html=1;rounded=0;entryX=0;entryY=0.5;entryDx=0;entryDy=0;" parent="3XHsffcMrnMJzHtE97wV-4" source="wpb5gG0qJwwTbhObTYYj-2" target="3XHsffcMrnMJzHtE97wV-57" edge="1">
          <mxGeometry width="50" height="50" relative="1" as="geometry">
            <mxPoint x="578" y="350" as="sourcePoint" />
            <mxPoint x="678" y="100" as="targetPoint" />
          </mxGeometry>
        </mxCell>
        <mxCell id="wpb5gG0qJwwTbhObTYYj-6" value="Cloudformation&lt;br style=&quot;font-size: 12px;&quot;&gt;deploy" style="edgeLabel;html=1;align=center;verticalAlign=middle;resizable=0;points=[];fontSize=12;" parent="wpb5gG0qJwwTbhObTYYj-5" vertex="1" connectable="0">
          <mxGeometry x="-0.3808" y="1" relative="1" as="geometry">
            <mxPoint x="16" y="-19" as="offset" />
          </mxGeometry>
        </mxCell>
        <mxCell id="sOdOTSkyfifiMh7heAos-1" value="S3 bucket" style="sketch=0;outlineConnect=0;fontColor=#232F3E;gradientColor=none;fillColor=#7AA116;strokeColor=none;dashed=0;verticalLabelPosition=bottom;verticalAlign=top;align=center;html=1;fontSize=12;fontStyle=0;aspect=fixed;pointerEvents=1;shape=mxgraph.aws4.bucket_with_objects;" vertex="1" parent="3XHsffcMrnMJzHtE97wV-4">
          <mxGeometry x="734.7" y="500.5" width="47.6" height="49.5" as="geometry" />
        </mxCell>
        <mxCell id="sOdOTSkyfifiMh7heAos-2" value="Custom&lt;br&gt;Resource&lt;br&gt;(S3 Auto Delete&lt;br&gt;Objects)" style="sketch=0;outlineConnect=0;fontColor=#232F3E;gradientColor=none;fillColor=#7AA116;strokeColor=none;dashed=0;verticalLabelPosition=bottom;verticalAlign=top;align=center;html=1;fontSize=12;fontStyle=0;aspect=fixed;pointerEvents=1;shape=mxgraph.aws4.lambda_function;" vertex="1" parent="3XHsffcMrnMJzHtE97wV-4">
          <mxGeometry x="843.5" y="584.5" width="49" height="49" as="geometry" />
        </mxCell>
        <mxCell id="sOdOTSkyfifiMh7heAos-3" value="(MLOps) Custom&amp;nbsp;Resource&lt;br&gt;Permissions Boundary" style="sketch=0;outlineConnect=0;fillColor=#d80073;strokeColor=#A50040;dashed=0;verticalLabelPosition=bottom;verticalAlign=top;align=center;html=1;fontSize=12;fontStyle=0;aspect=fixed;pointerEvents=1;shape=mxgraph.aws4.permissions;fontColor=#000000;" vertex="1" parent="3XHsffcMrnMJzHtE97wV-4">
          <mxGeometry x="460.0000000000001" y="620" width="63.59" height="80" as="geometry" />
        </mxCell>
        <mxCell id="sOdOTSkyfifiMh7heAos-4" value="" style="endArrow=classic;html=1;rounded=0;" edge="1" parent="3XHsffcMrnMJzHtE97wV-4" source="sOdOTSkyfifiMh7heAos-2" target="sOdOTSkyfifiMh7heAos-5">
          <mxGeometry width="50" height="50" relative="1" as="geometry">
            <mxPoint x="590" y="690" as="sourcePoint" />
            <mxPoint x="640" y="640" as="targetPoint" />
          </mxGeometry>
        </mxCell>
        <mxCell id="sOdOTSkyfifiMh7heAos-5" value="Custom Resource&lt;br&gt;role&lt;br&gt;Path: /approle/" style="sketch=0;outlineConnect=0;fontColor=#232F3E;gradientColor=none;fillColor=#DD344C;strokeColor=none;dashed=0;verticalLabelPosition=bottom;verticalAlign=top;align=center;html=1;fontSize=12;fontStyle=0;aspect=fixed;pointerEvents=1;shape=mxgraph.aws4.role;" vertex="1" parent="3XHsffcMrnMJzHtE97wV-4">
          <mxGeometry x="723.04" y="589" width="70.91" height="40" as="geometry" />
        </mxCell>
        <mxCell id="sOdOTSkyfifiMh7heAos-6" value="" style="endArrow=classic;html=1;rounded=1;curved=0;dashed=1;" edge="1" parent="3XHsffcMrnMJzHtE97wV-4" source="sOdOTSkyfifiMh7heAos-5" target="sOdOTSkyfifiMh7heAos-3">
          <mxGeometry width="50" height="50" relative="1" as="geometry">
            <mxPoint x="270" y="680" as="sourcePoint" />
            <mxPoint x="320" y="630" as="targetPoint" />
            <Array as="points">
              <mxPoint x="660" y="610" />
              <mxPoint x="660" y="660" />
            </Array>
          </mxGeometry>
        </mxCell>
        <mxCell id="sOdOTSkyfifiMh7heAos-7" value="Attach&lt;div&gt;on deployment&lt;br&gt;Condition&lt;/div&gt;" style="edgeLabel;html=1;align=center;verticalAlign=middle;resizable=0;points=[];" vertex="1" connectable="0" parent="sOdOTSkyfifiMh7heAos-6">
          <mxGeometry x="0.4725" y="-1" relative="1" as="geometry">
            <mxPoint x="10" y="1" as="offset" />
          </mxGeometry>
        </mxCell>
        <mxCell id="sOdOTSkyfifiMh7heAos-12" value="" style="endArrow=classic;html=1;rounded=1;curved=0;" edge="1" parent="3XHsffcMrnMJzHtE97wV-4" source="sOdOTSkyfifiMh7heAos-2" target="sOdOTSkyfifiMh7heAos-1">
          <mxGeometry width="50" height="50" relative="1" as="geometry">
            <mxPoint x="1250" y="600" as="sourcePoint" />
            <mxPoint x="1300" y="550" as="targetPoint" />
            <Array as="points">
              <mxPoint x="868" y="525" />
            </Array>
          </mxGeometry>
        </mxCell>
        <mxCell id="sOdOTSkyfifiMh7heAos-13" value="Delete S3&lt;br&gt;Objects on&lt;br&gt;Stack Deletion" style="edgeLabel;html=1;align=center;verticalAlign=middle;resizable=0;points=[];" vertex="1" connectable="0" parent="sOdOTSkyfifiMh7heAos-12">
          <mxGeometry x="-0.3606" y="1" relative="1" as="geometry">
            <mxPoint x="1" y="12" as="offset" />
          </mxGeometry>
        </mxCell>
        <mxCell id="3XHsffcMrnMJzHtE97wV-9" value="App&lt;br&gt;Permissions&lt;br&gt;Boundary" style="sketch=0;outlineConnect=0;fillColor=#d80073;strokeColor=#A50040;dashed=0;verticalLabelPosition=bottom;verticalAlign=top;align=center;html=1;fontSize=12;fontStyle=0;aspect=fixed;pointerEvents=1;shape=mxgraph.aws4.permissions;fontColor=#000000;" parent="1" vertex="1">
          <mxGeometry x="-440" y="560" width="63.59" height="80" as="geometry" />
        </mxCell>
        <mxCell id="3XHsffcMrnMJzHtE97wV-11" value="Standard&lt;br&gt;Deployment&lt;br&gt;Policy" style="sketch=0;outlineConnect=0;fillColor=#008a00;strokeColor=#005700;dashed=0;verticalLabelPosition=bottom;verticalAlign=top;align=center;html=1;fontSize=12;fontStyle=0;aspect=fixed;pointerEvents=1;shape=mxgraph.aws4.permissions;fontColor=#000000;" parent="1" vertex="1">
          <mxGeometry x="-40" y="560" width="63.59" height="80" as="geometry" />
        </mxCell>
        <mxCell id="3XHsffcMrnMJzHtE97wV-25" value="Allow only data plane actions such as read/write S3 objects, DynamoDB items etc. as well as certain whitelisted control plane operations such as log group/stream creation and permissions to allow Custom Resources, where required" style="rounded=0;whiteSpace=wrap;html=1;strokeColor=#808080;fontColor=#808080;" parent="1" vertex="1">
          <mxGeometry x="-491.61" y="700" width="166.8" height="160" as="geometry" />
        </mxCell>
        <mxCell id="3XHsffcMrnMJzHtE97wV-26" value="Most resources/actions allowed with namespaces restrictions on IAM roles, policies &amp;amp; instance profiles" style="rounded=0;whiteSpace=wrap;html=1;strokeColor=#808080;fontColor=#808080;" parent="1" vertex="1">
          <mxGeometry x="-91.60000000000002" y="700" width="166.8" height="160" as="geometry" />
        </mxCell>
        <mxCell id="3XHsffcMrnMJzHtE97wV-30" value="Standard&lt;br&gt;Development&lt;br&gt;Policy" style="sketch=0;outlineConnect=0;fillColor=#0050ef;strokeColor=#001DBC;dashed=0;verticalLabelPosition=bottom;verticalAlign=top;align=center;html=1;fontSize=12;fontStyle=0;aspect=fixed;pointerEvents=1;shape=mxgraph.aws4.permissions;fontColor=#000000;" parent="1" vertex="1">
          <mxGeometry x="-240" y="560" width="63.59" height="80" as="geometry" />
        </mxCell>
        <mxCell id="3XHsffcMrnMJzHtE97wV-31" value="Allow view/read access to all relevant resources" style="rounded=0;whiteSpace=wrap;html=1;strokeColor=#808080;fontColor=#808080;" parent="1" vertex="1">
          <mxGeometry x="-291.61" y="700" width="166.8" height="160" as="geometry" />
        </mxCell>
        <mxCell id="3XHsffcMrnMJzHtE97wV-49" value="" style="endArrow=classic;html=1;rounded=1;curved=0;entryX=0.134;entryY=0.5;entryDx=0;entryDy=0;entryPerimeter=0;" parent="1" source="3XHsffcMrnMJzHtE97wV-3" target="3XHsffcMrnMJzHtE97wV-14" edge="1">
          <mxGeometry width="50" height="50" relative="1" as="geometry">
            <mxPoint x="30" y="400" as="sourcePoint" />
            <mxPoint x="10" y="330" as="targetPoint" />
            <Array as="points">
              <mxPoint x="140" y="342" />
              <mxPoint x="140" y="600" />
            </Array>
          </mxGeometry>
        </mxCell>
        <mxCell id="3XHsffcMrnMJzHtE97wV-50" value="" style="endArrow=classic;html=1;rounded=1;curved=0;" parent="1" source="3XHsffcMrnMJzHtE97wV-7" target="3XHsffcMrnMJzHtE97wV-13" edge="1">
          <mxGeometry width="50" height="50" relative="1" as="geometry">
            <mxPoint x="10" y="1080" as="sourcePoint" />
            <mxPoint x="60" y="1030" as="targetPoint" />
            <Array as="points">
              <mxPoint x="130" y="420" />
              <mxPoint x="130" y="880" />
            </Array>
          </mxGeometry>
        </mxCell>
        <mxCell id="yce7iASfih_bdmyY1fIq-2" value="" style="endArrow=classic;html=1;rounded=1;curved=0;entryX=0.25;entryY=0;entryDx=0;entryDy=0;dashed=1;" parent="1" source="3XHsffcMrnMJzHtE97wV-69" target="3XHsffcMrnMJzHtE97wV-4" edge="1">
          <mxGeometry width="50" height="50" relative="1" as="geometry">
            <mxPoint x="740" y="480" as="sourcePoint" />
            <mxPoint x="790" y="430" as="targetPoint" />
            <Array as="points">
              <mxPoint x="470" y="460" />
              <mxPoint x="350" y="460" />
            </Array>
          </mxGeometry>
        </mxCell>
        <mxCell id="yce7iASfih_bdmyY1fIq-3" value="" style="endArrow=classic;html=1;rounded=0;entryX=0.5;entryY=0;entryDx=0;entryDy=0;dashed=1;" parent="1" source="yce7iASfih_bdmyY1fIq-1" target="3XHsffcMrnMJzHtE97wV-4" edge="1">
          <mxGeometry width="50" height="50" relative="1" as="geometry">
            <mxPoint x="610" y="470" as="sourcePoint" />
            <mxPoint x="660" y="420" as="targetPoint" />
          </mxGeometry>
        </mxCell>
        <mxCell id="sOdOTSkyfifiMh7heAos-9" value="Custom Resource&lt;br&gt;Permissions&lt;br&gt;Boundary" style="sketch=0;outlineConnect=0;fillColor=#d80073;strokeColor=#A50040;dashed=0;verticalLabelPosition=bottom;verticalAlign=top;align=center;html=1;fontSize=12;fontStyle=0;aspect=fixed;pointerEvents=1;shape=mxgraph.aws4.permissions;fontColor=#000000;" vertex="1" parent="1">
          <mxGeometry x="-440" y="880" width="63.59" height="80" as="geometry" />
        </mxCell>
        <mxCell id="sOdOTSkyfifiMh7heAos-10" value="Allow only control and data plane actions that are needed by a custom resource such as the ability to list an S3 bucket and delete all objects in the bucket" style="rounded=0;whiteSpace=wrap;html=1;strokeColor=#808080;fontColor=#808080;" vertex="1" parent="1">
          <mxGeometry x="-491.61" y="1020" width="166.8" height="160" as="geometry" />
        </mxCell>
      </root>
    </mxGraphModel>
  </diagram>
</mxfile>
